HIERARCHY
ROOT newVegas:Hips
{
	OFFSET 0.000000 96.479958 0.000000
	CHANNELS 6 Xposition Yposition Zposition Xrotation Yrotation Zrotation
	JOINT newVegas:Pelvis
	{
		OFFSET 0.000000 0.000000 0.000000
		CHANNELS 3 Xrotation Yrotation Zrotation
		JOINT newVegas:LeftUpLeg
		{
			OFFSET 18.735201 -5.666702 -4.541200
			CHANNELS 3 Xrotation Yrotation Zrotation
			JOINT newVegas:LeftLeg
			{
				OFFSET -0.021200 -31.938179 0.493100
				CHANNELS 3 Xrotation Yrotation Zrotation
				JOINT newVegas:LeftFoot
				{
					OFFSET 0.021200 -31.938179 -4.336299
					CHANNELS 3 Xrotation Yrotation Zrotation
					JOINT newVegas:LeftToeBase
					{
						OFFSET 0.943001 -26.722000 15.023500
						CHANNELS 3 Xrotation Yrotation Zrotation
						End Site
						{
							OFFSET 0.000000 30.670183 0.000000
						}
					}
				}
				JOINT newVegas:Left_PantLeg
				{
					OFFSET 0.663870 -9.044666 -1.108900
					CHANNELS 3 Xrotation Yrotation Zrotation
					End Site
					{
						OFFSET 1.415995 20.635357 0.000000
					}
				}
			}
		}
		JOINT newVegas:RightUpLeg
		{
			OFFSET -18.735201 -5.666702 -4.541200
			CHANNELS 3 Xrotation Yrotation Zrotation
			JOINT newVegas:RightLeg
			{
				OFFSET 0.018946 -31.938133 0.493100
				CHANNELS 3 Xrotation Yrotation Zrotation
				JOINT newVegas:RightFoot
				{
					OFFSET -0.018946 -31.938126 -4.336299
					CHANNELS 3 Xrotation Yrotation Zrotation
					JOINT newVegas:RightToeBase
					{
						OFFSET -0.943001 -26.722004 15.023500
						CHANNELS 3 Xrotation Yrotation Zrotation
						End Site
						{
							OFFSET 0.000000 30.670187 0.000000
						}
					}
				}
				JOINT newVegas:Right_PantLeg
				{
					OFFSET -0.661674 -9.044716 -1.108900
					CHANNELS 3 Xrotation Yrotation Zrotation
					End Site
					{
						OFFSET -1.415958 20.635269 0.000000
					}
				}
			}
		}
	}
	JOINT newVegas:Spine
	{
		OFFSET 0.000000 10.199997 -0.299500
		CHANNELS 3 Xrotation Yrotation Zrotation
		JOINT newVegas:Spine1
		{
			OFFSET 0.000000 11.900002 -1.516600
			CHANNELS 3 Xrotation Yrotation Zrotation
			JOINT newVegas:Spine2
			{
				OFFSET 0.000000 13.600006 -2.842500
				CHANNELS 3 Xrotation Yrotation Zrotation
				JOINT newVegas:Neck
				{
					OFFSET 0.000000 9.624100 -2.890100
					CHANNELS 3 Xrotation Yrotation Zrotation
					JOINT newVegas:Head
					{
						OFFSET 0.000000 14.068802 -1.351900
						CHANNELS 3 Xrotation Yrotation Zrotation
						JOINT newVegas:Hair_Back
						{
							OFFSET 0.000000 3.231903 -17.524799
							CHANNELS 3 Xrotation Yrotation Zrotation
							End Site
							{
								OFFSET 0.000000 19.849884 0.000000
							}
						}
						JOINT newVegas:Hair_Front
						{
							OFFSET 0.000000 31.260406 4.573800
							CHANNELS 3 Xrotation Yrotation Zrotation
							JOINT newVegas:Hair_Front1
							{
								OFFSET 0.000000 2.284103 11.993300
								CHANNELS 3 Xrotation Yrotation Zrotation
								JOINT newVegas:Hair_Front2
								{
									OFFSET 0.000000 2.284103 11.993300
									CHANNELS 3 Xrotation Yrotation Zrotation
									End Site
									{
										OFFSET 0.000000 12.208862 0.000000
									}
								}
							}
						}
						JOINT newVegas:Jowel
						{
							OFFSET 0.000000 -7.458206 6.864100
							CHANNELS 3 Xrotation Yrotation Zrotation
							End Site
							{
								OFFSET 0.000000 19.849884 0.000000
							}
						}
					}
				}
				JOINT newVegas:LeftShoulder
				{
					OFFSET 15.263000 10.923401 -0.547700
					CHANNELS 3 Xrotation Yrotation Zrotation
					JOINT newVegas:LeftArm
					{
						OFFSET 25.438599 -2.830597 -13.032500
						CHANNELS 3 Xrotation Yrotation Zrotation
						JOINT newVegas:LeftForeArm
						{
							OFFSET 29.960503 0.000000 0.000000
							CHANNELS 3 Xrotation Yrotation Zrotation
							JOINT newVegas:LeftHand
							{
								OFFSET 27.849251 0.000000 0.000000
								CHANNELS 3 Xrotation Yrotation Zrotation
								JOINT newVegas:LeftHandThumb1
								{
									OFFSET 4.487587 -3.305161 6.305391
									CHANNELS 3 Xrotation Yrotation Zrotation
									JOINT newVegas:LeftHandThumb2
									{
										OFFSET 5.480453 -3.164139 3.164143
										CHANNELS 3 Xrotation Yrotation Zrotation
										JOINT newVegas:LeftHandThumb3
										{
											OFFSET 5.159721 -2.978973 2.978967
											CHANNELS 3 Xrotation Yrotation Zrotation
											End Site
											{
												OFFSET 2.494507 5.926697 1.738678
											}
										}
									}
								}
								JOINT newVegas:LeftHandIndex1
								{
									OFFSET 18.578728 -0.527832 5.208049
									CHANNELS 3 Xrotation Yrotation Zrotation
									JOINT newVegas:LeftHandIndex2
									{
										OFFSET 3.192009 0.000000 0.000000
										CHANNELS 3 Xrotation Yrotation Zrotation
										JOINT newVegas:LeftHandIndex3
										{
											OFFSET 3.835129 0.000000 0.000000
											CHANNELS 3 Xrotation Yrotation Zrotation
											End Site
											{
												OFFSET -0.034599 3.816971 0.371180
											}
										}
									}
								}
								JOINT newVegas:LeftHandMiddle1
								{
									OFFSET 18.476105 0.000000 0.000000
									CHANNELS 3 Xrotation Yrotation Zrotation
									JOINT newVegas:LeftHandMiddle2
									{
										OFFSET 3.324875 0.000000 0.000000
										CHANNELS 3 Xrotation Yrotation Zrotation
										JOINT newVegas:LeftHandMiddle3
										{
											OFFSET 4.596550 0.000000 0.000000
											CHANNELS 3 Xrotation Yrotation Zrotation
											End Site
											{
												OFFSET 0.057701 4.578827 0.399218
											}
										}
									}
								}
								JOINT newVegas:LeftHandRing1
								{
									OFFSET 17.732719 0.121887 -4.201567
									CHANNELS 3 Xrotation Yrotation Zrotation
									JOINT newVegas:LeftHandRing2
									{
										OFFSET 2.733170 0.000000 0.000000
										CHANNELS 3 Xrotation Yrotation Zrotation
										JOINT newVegas:LeftHandRing3
										{
											OFFSET 3.178268 0.000000 0.000000
											CHANNELS 3 Xrotation Yrotation Zrotation
											End Site
											{
												OFFSET 0.119102 3.170624 0.185394
											}
										}
									}
								}
								JOINT newVegas:LeftHandPinky1
								{
									OFFSET 15.989624 -0.606689 -7.535461
									CHANNELS 3 Xrotation Yrotation Zrotation
									JOINT newVegas:LeftHandPinky2
									{
										OFFSET 2.538986 0.000000 0.000000
										CHANNELS 3 Xrotation Yrotation Zrotation
										JOINT newVegas:LeftHandPinky3
										{
											OFFSET 2.593102 0.000000 0.000000
											CHANNELS 3 Xrotation Yrotation Zrotation
											End Site
											{
												OFFSET -0.150902 2.584198 0.152708
											}
										}
									}
								}
							}
							JOINT newVegas:Left_Sleeve
							{
								OFFSET 0.267448 -0.649796 0.577675
								CHANNELS 3 Xrotation Yrotation Zrotation
								End Site
								{
									OFFSET 0.000000 15.991241 0.000000
								}
							}
							JOINT newVegas:Left_CapeC
							{
								OFFSET 15.715958 -8.608795 -6.935905
								CHANNELS 3 Xrotation Yrotation Zrotation
								JOINT newVegas:Left_CapeC1
								{
									OFFSET 0.000000 -8.688499 0.000000
									CHANNELS 3 Xrotation Yrotation Zrotation
									End Site
									{
										OFFSET 0.000000 8.688499 0.000000
									}
								}
							}
						}
						JOINT newVegas:Left_CapeB
						{
							OFFSET 26.118385 -8.608795 -7.079235
							CHANNELS 3 Xrotation Yrotation Zrotation
							JOINT newVegas:Left_CapeB1
							{
								OFFSET 0.000000 -8.688499 0.000000
								CHANNELS 3 Xrotation Yrotation Zrotation
								End Site
								{
									OFFSET 0.000000 8.688499 0.000000
								}
							}
						}
						JOINT newVegas:Left_CapeA
						{
							OFFSET 5.115639 -8.608795 -10.395809
							CHANNELS 3 Xrotation Yrotation Zrotation
							JOINT newVegas:Left_CapeA1
							{
								OFFSET 0.000000 -8.688499 0.000000
								CHANNELS 3 Xrotation Yrotation Zrotation
								End Site
								{
									OFFSET 0.000000 8.688499 0.000000
								}
							}
						}
					}
				}
				JOINT newVegas:RightShoulder
				{
					OFFSET -15.263000 10.923401 -0.547700
					CHANNELS 3 Xrotation Yrotation Zrotation
					JOINT newVegas:RightArm
					{
						OFFSET -25.438599 -2.830597 -13.032500
						CHANNELS 3 Xrotation Yrotation Zrotation
						JOINT newVegas:RightForeArm
						{
							OFFSET -29.960503 0.000000 0.000000
							CHANNELS 3 Xrotation Yrotation Zrotation
							JOINT newVegas:RightHand
							{
								OFFSET -27.849251 0.000000 0.000000
								CHANNELS 3 Xrotation Yrotation Zrotation
								JOINT newVegas:RightHandThumb1
								{
									OFFSET -4.487587 -3.305161 6.305391
									CHANNELS 3 Xrotation Yrotation Zrotation
									JOINT newVegas:RightHandThumb2
									{
										OFFSET -5.480453 -3.164139 3.164143
										CHANNELS 3 Xrotation Yrotation Zrotation
										JOINT newVegas:RightHandThumb3
										{
											OFFSET -5.159721 -2.978973 2.978967
											CHANNELS 3 Xrotation Yrotation Zrotation
											End Site
											{
												OFFSET -2.494507 5.926697 1.738678
											}
										}
									}
								}
								JOINT newVegas:RightHandIndex1
								{
									OFFSET -18.578728 -0.527832 5.208049
									CHANNELS 3 Xrotation Yrotation Zrotation
									JOINT newVegas:RightHandIndex2
									{
										OFFSET -3.192009 0.000000 0.000000
										CHANNELS 3 Xrotation Yrotation Zrotation
										JOINT newVegas:RightHandIndex3
										{
											OFFSET -3.835129 0.000000 0.000000
											CHANNELS 3 Xrotation Yrotation Zrotation
											End Site
											{
												OFFSET 0.034599 3.816971 0.371180
											}
										}
									}
								}
								JOINT newVegas:RightHandMiddle1
								{
									OFFSET -18.476105 0.000000 0.000000
									CHANNELS 3 Xrotation Yrotation Zrotation
									JOINT newVegas:RightHandMiddle2
									{
										OFFSET -3.324875 0.000000 0.000000
										CHANNELS 3 Xrotation Yrotation Zrotation
										JOINT newVegas:RightHandMiddle3
										{
											OFFSET -4.596550 0.000000 0.000000
											CHANNELS 3 Xrotation Yrotation Zrotation
											End Site
											{
												OFFSET -0.057701 4.578827 0.399218
											}
										}
									}
								}
								JOINT newVegas:RightHandRing1
								{
									OFFSET -17.732719 0.121887 -4.201567
									CHANNELS 3 Xrotation Yrotation Zrotation
									JOINT newVegas:RightHandRing2
									{
										OFFSET -2.733170 0.000000 0.000000
										CHANNELS 3 Xrotation Yrotation Zrotation
										JOINT newVegas:RightHandRing3
										{
											OFFSET -3.178268 0.000000 0.000000
											CHANNELS 3 Xrotation Yrotation Zrotation
											End Site
											{
												OFFSET -0.119102 3.170624 0.185394
											}
										}
									}
								}
								JOINT newVegas:RightHandPinky1
								{
									OFFSET -15.989624 -0.606689 -7.535461
									CHANNELS 3 Xrotation Yrotation Zrotation
									JOINT newVegas:RightHandPinky2
									{
										OFFSET -2.538986 0.000000 0.000000
										CHANNELS 3 Xrotation Yrotation Zrotation
										JOINT newVegas:RightHandPinky3
										{
											OFFSET -2.593102 0.000000 0.000000
											CHANNELS 3 Xrotation Yrotation Zrotation
											End Site
											{
												OFFSET 0.150902 2.584198 0.152708
											}
										}
									}
								}
							}
							JOINT newVegas:Right_CapeC
							{
								OFFSET -15.715958 -8.608795 -6.935905
								CHANNELS 3 Xrotation Yrotation Zrotation
								JOINT newVegas:Right_CapeC1
								{
									OFFSET 0.000000 -8.688499 0.000000
									CHANNELS 3 Xrotation Yrotation Zrotation
									End Site
									{
										OFFSET 0.000000 8.688499 0.000000
									}
								}
							}
							JOINT newVegas:Right_Sleeve
							{
								OFFSET -0.267448 -0.649994 0.577675
								CHANNELS 3 Xrotation Yrotation Zrotation
								End Site
								{
									OFFSET 0.000000 15.991302 0.000000
								}
							}
						}
						JOINT newVegas:Right_CapeA
						{
							OFFSET -5.115540 -8.608795 -10.395824
							CHANNELS 3 Xrotation Yrotation Zrotation
							JOINT newVegas:Right_CapeA1
							{
								OFFSET 0.000000 -8.688499 0.000000
								CHANNELS 3 Xrotation Yrotation Zrotation
								End Site
								{
									OFFSET 0.000000 8.688499 0.000000
								}
							}
						}
						JOINT newVegas:Right_CapeB
						{
							OFFSET -26.118187 -8.608795 -7.079266
							CHANNELS 3 Xrotation Yrotation Zrotation
							JOINT newVegas:Right_CapeB1
							{
								OFFSET 0.000000 -8.688499 0.000000
								CHANNELS 3 Xrotation Yrotation Zrotation
								End Site
								{
									OFFSET 0.000000 8.688499 0.000000
								}
							}
						}
					}
				}
				JOINT newVegas:Left_Collar
				{
					OFFSET 18.625099 8.655502 8.828100
					CHANNELS 3 Xrotation Yrotation Zrotation
					JOINT newVegas:Left_Collar1
					{
						OFFSET 14.783401 10.540405 -1.259500
						CHANNELS 3 Xrotation Yrotation Zrotation
						End Site
						{
							OFFSET 0.000000 18.199875 0.000000
						}
					}
				}
				JOINT newVegas:Collar_Back
				{
					OFFSET 0.000000 15.630707 -20.132601
					CHANNELS 3 Xrotation Yrotation Zrotation
					End Site
					{
						OFFSET 0.000000 22.523010 0.000000
					}
				}
				JOINT newVegas:Left_Peck
				{
					OFFSET 17.239599 -5.132599 25.482599
					CHANNELS 3 Xrotation Yrotation Zrotation
					End Site
					{
						OFFSET 0.000000 22.523010 0.000000
					}
				}
				JOINT newVegas:Right_Peck
				{
					OFFSET -17.239599 -5.132202 25.482599
					CHANNELS 3 Xrotation Yrotation Zrotation
					End Site
					{
						OFFSET 0.000000 22.523010 0.000000
					}
				}
				JOINT newVegas:Right_Collar
				{
					OFFSET -18.625099 8.655792 8.828100
					CHANNELS 3 Xrotation Yrotation Zrotation
					JOINT newVegas:Right_Collar1
					{
						OFFSET -14.783401 10.539993 -1.259500
						CHANNELS 3 Xrotation Yrotation Zrotation
						End Site
						{
							OFFSET 0.000000 18.199631 0.000000
						}
					}
				}
			}
		}
		JOINT newVegas:Belly
		{
			OFFSET 0.000000 -6.540398 9.014299
			CHANNELS 3 Xrotation Yrotation Zrotation
			End Site
			{
				OFFSET 0.000000 11.566666 0.000000
			}
		}
	}
	JOINT newVegas:ElvisFacialAnim_Joint
	{
		OFFSET 1.000000 -95.330101 -8.825800
		CHANNELS 3 Xrotation Yrotation Zrotation
		End Site
		{
			OFFSET 0.000000 35.315800 0.000000
		}
	}
}
MOTION
Frames: 4
Frame Time: 0.016667
-4.207012 91.505615 -3.341541 -2.957697 -1.414929 2.074839 0.000000 -0.000000 0.000000 -22.002829 6.230285 3.279689 35.373748 7.034052 -1.315390 -9.887121 0.745971 -2.422668 -0.000000 -0.000000 -0.000000 0.000001 -0.000000 -0.000000 -5.651223 -16.216367 -15.912932 30.570318 0.291262 -5.660136 -21.040954 -2.864434 17.935781 0.000000 -0.000000 -0.000000 0.000001 0.000002 0.000000 8.849755 2.869899 -5.048200 1.276165 0.577129 -0.622580 1.278388 0.567047 -0.629523 -2.423613 0.191986 0.374483 -2.423607 0.191988 0.374480 0.000000 -0.000000 0.000000 -2.423608 0.191986 0.374480 -2.423546 0.191991 0.374480 -0.000000 0.000000 0.000000 0.000000 -0.000000 0.000000 -0.302513 5.872711 -1.999016 -14.720680 -10.177253 -69.280999 0.000001 -33.970219 0.000016 11.041595 5.640844 -12.077320 -1.528257 3.687867 6.128902 3.939049 7.948698 0.746786 0.000003 0.000001 -0.000001 0.033127 0.675973 -5.610574 0.032969 0.674432 -5.597735 0.000001 -0.000000 0.000001 0.069857 0.980275 -8.151091 0.078700 1.040181 -8.653165 0.000000 0.000000 0.000001 0.141442 1.391198 -11.609547 0.158270 1.470732 -12.283656 -0.000002 -0.000001 -0.000001 1.260522 5.698238 -14.444259 0.229467 -2.281939 -15.368554 -0.000000 0.000000 0.000001 -0.000001 0.000001 -0.000001 -0.000001 0.000001 -0.000001 -0.000001 0.000001 -0.000002 0.000000 -0.000003 -0.000002 -0.000000 -0.000003 -0.000002 0.000000 -0.000003 -0.000002 -0.000000 -0.000002 -0.000002 4.545750 12.838998 -7.835331 -1.611809 -3.214995 72.442523 -0.000000 36.829705 0.000008 4.215985 0.157736 15.844613 -1.849255 -3.581797 -6.586144 4.637193 -8.634121 -0.225391 0.000001 -0.000003 -0.000003 0.097301 -1.161574 9.577313 0.097316 -1.161579 9.577300 0.000000 0.000002 -0.000000 0.734447 -4.504870 10.622729 0.142220 -1.401916 11.584696 -0.000001 0.000003 0.000001 1.799549 -8.681480 12.425408 0.204361 -1.676594 13.897333 0.000000 0.000001 -0.000000 3.081993 -12.378827 14.479202 0.252506 -1.860354 15.457613 -0.000002 -0.000002 0.000001 0.000000 -0.000001 0.000001 -0.000002 -0.000002 -0.000002 0.000000 -0.000001 -0.000001 -0.000001 0.000002 0.000001 -0.000000 0.000002 0.000001 -0.000001 0.000002 0.000001 -0.000000 0.000001 0.000001 0.000000 -0.000000 -0.000000 0.000000 -0.000000 -0.000000 0.000000 -0.000000 -0.000000 0.000000 -0.000000 -0.000000 0.000000 -0.000000 -0.000000 0.000000 -0.000000 -0.000000 0.000000 -0.000000 -0.000000 0.000000 -0.000000 0.000000 0.000000 -0.000000 0.000000 
-4.249151 91.500076 -3.457470 -2.861523 -1.487220 2.057180 -0.000000 0.000000 0.000000 -22.156165 6.246920 3.359438 35.383576 7.295707 -1.360684 -9.817532 0.764345 -2.458870 0.000000 -0.000000 -0.000000 -0.000001 -0.000000 -0.000000 -5.863424 -16.116320 -15.823093 30.644122 0.419802 -5.620234 -21.107887 -2.982534 17.771155 0.000000 0.000001 -0.000000 0.000001 0.000002 -0.000000 8.972084 2.764807 -5.160911 1.296463 0.561209 -0.636463 1.298514 0.551111 -0.643278 -2.451090 0.167274 0.467838 -2.451092 0.167273 0.467839 -0.000000 -0.000000 -0.000000 -2.451019 0.167275 0.467838 -2.451027 0.167276 0.467838 0.000000 0.000000 0.000000 -0.000000 -0.000000 -0.000000 -0.303983 5.822775 -1.781757 -14.889686 -10.799709 -69.024416 0.000003 -34.489894 -0.000002 10.925302 5.810040 -12.083954 -1.528123 3.687844 6.128767 3.939052 7.948699 0.746783 -0.000002 0.000000 -0.000001 0.033125 0.675967 -5.610576 0.032968 0.674436 -5.597737 -0.000001 -0.000000 0.000000 0.069857 0.980274 -8.151093 0.078702 1.040177 -8.653165 -0.000003 0.000001 0.000000 0.141442 1.391198 -11.609544 0.158268 1.470736 -12.283656 0.000000 -0.000001 0.000001 1.260518 5.698230 -14.444260 0.229467 -2.281935 -15.368557 0.000000 -0.000002 -0.000001 -0.000000 0.000000 -0.000001 -0.000000 0.000000 -0.000001 -0.000000 0.000000 -0.000001 -0.000000 0.000000 -0.000002 -0.000000 -0.000000 -0.000003 -0.000000 0.000000 -0.000002 0.000000 0.000001 -0.000002 4.504494 12.696256 -7.406782 -1.846142 -3.449438 72.003786 0.000013 37.086561 -0.000010 4.778059 -0.150863 16.413887 -1.849249 -3.581800 -6.586146 4.637195 -8.634122 -0.225384 0.000001 -0.000001 0.000001 0.097303 -1.161573 9.577315 0.097309 -1.161580 9.577301 -0.000002 -0.000000 -0.000001 0.734452 -4.504872 10.622730 0.142216 -1.401918 11.584698 -0.000005 0.000001 -0.000000 1.799551 -8.681479 12.425408 0.204359 -1.676588 13.897336 0.000001 -0.000001 0.000000 3.081998 -12.378820 14.479205 0.252506 -1.860352 15.457613 -0.000001 -0.000000 0.000001 -0.000000 0.000001 -0.000002 0.000001 0.000003 -0.000003 -0.000000 0.000001 -0.000002 -0.000001 0.000000 0.000001 -0.000001 0.000000 0.000001 -0.000001 0.000000 0.000001 -0.000001 -0.000000 0.000001 0.000001 0.000000 -0.000001 0.000001 0.000000 -0.000001 0.000001 0.000000 -0.000001 0.000001 0.000000 -0.000001 0.000001 0.000000 -0.000001 0.000001 0.000000 -0.000001 0.000001 0.000000 -0.000001 -0.000000 -0.000000 0.000000 -0.000000 0.000000 0.000000 
-4.293454 91.496033 -3.582239 -2.752948 -1.553821 2.033562 -0.000000 0.000000 0.000000 -22.330952 6.244256 3.434835 35.388907 7.590259 -1.389626 -9.732969 0.777904 -2.510827 -0.000000 0.000000 -0.000000 -0.000001 -0.000000 -0.000000 -6.095696 -16.014680 -15.738515 30.719445 0.523420 -5.570968 -21.152486 -3.077966 17.628650 0.000000 0.000000 -0.000000 0.000000 0.000001 -0.000000 9.102132 2.637223 -5.249057 1.319394 0.540907 -0.647529 1.321270 0.530791 -0.654147 -2.475154 0.145614 0.551872 -2.475188 0.145614 0.551869 0.000000 0.000000 0.000000 -2.475222 0.145625 0.551868 -2.475220 0.145599 0.551873 -0.000000 -0.000000 -0.000000 0.000000 0.000000 0.000000 -0.303279 5.756982 -1.555983 -15.042472 -11.360661 -68.812633 0.000007 -34.989215 -0.000003 10.923344 5.925818 -12.107321 -1.527928 3.687834 6.128535 3.939046 7.948698 0.746784 0.000002 -0.000000 -0.000001 0.033127 0.675968 -5.610574 0.032963 0.674438 -5.597737 0.000000 0.000003 -0.000000 0.069857 0.980272 -8.151091 0.078701 1.040179 -8.653165 -0.000004 0.000001 0.000001 0.141443 1.391200 -11.609547 0.158272 1.470731 -12.283657 0.000002 0.000001 0.000001 1.260522 5.698231 -14.444262 0.229465 -2.281940 -15.368554 -0.000002 0.000000 0.000000 0.000001 0.000004 -0.000000 0.000001 0.000004 -0.000000 0.000001 0.000004 -0.000001 0.000000 0.000001 0.000002 -0.000000 0.000000 0.000000 0.000000 0.000001 0.000002 0.000000 0.000002 0.000001 4.474243 12.585513 -7.073513 -2.036078 -3.701649 71.662235 0.000002 37.330187 -0.000003 5.206100 -0.406977 16.986151 -1.849253 -3.581799 -6.586146 4.637194 -8.634120 -0.225389 -0.000000 -0.000003 -0.000001 0.097300 -1.161575 9.577319 0.097309 -1.161579 9.577301 -0.000002 0.000001 -0.000001 0.734446 -4.504873 10.622729 0.142215 -1.401920 11.584697 -0.000005 0.000001 -0.000001 1.799548 -8.681479 12.425408 0.204359 -1.676588 13.897332 0.000004 -0.000001 -0.000000 3.081990 -12.378825 14.479204 0.252509 -1.860355 15.457611 0.000003 -0.000002 -0.000000 0.000001 0.000003 -0.000000 -0.000001 0.000000 0.000001 0.000001 0.000003 -0.000000 0.000001 0.000000 -0.000001 0.000002 0.000001 -0.000001 0.000001 0.000000 -0.000001 0.000002 -0.000000 -0.000001 0.000001 -0.000000 0.000000 0.000001 -0.000000 0.000000 0.000001 -0.000000 0.000000 0.000001 -0.000000 0.000000 0.000001 -0.000000 0.000000 0.000001 -0.000000 0.000000 0.000001 -0.000000 0.000000 0.000000 -0.000000 0.000000 -0.000000 0.000000 0.000000 
-4.344829 91.496498 -3.730402 -2.601111 -1.588720 1.995190 -0.000000 0.000000 0.000000 -22.573260 6.177778 3.486773 35.370743 8.006471 -1.360937 -9.597354 0.747654 -2.618305 0.000000 -0.000000 -0.000000 -0.000001 0.000000 -0.000000 -6.387890 -15.915459 -15.672221 30.802090 0.553799 -5.485537 -21.138640 -3.115385 17.541673 0.000000 -0.000002 -0.000000 0.000003 0.000003 -0.000000 9.245543 2.441075 -5.272626 1.348061 0.507319 -0.651501 1.349748 0.497194 -0.657720 -2.489893 0.131616 0.613011 -2.489896 0.131614 0.613015 0.000000 0.000000 0.000000 -2.489894 0.131615 0.613013 -2.489895 0.131614 0.613012 -0.000000 -0.000000 -0.000000 0.000000 0.000000 0.000000 -0.297160 5.645770 -1.293702 -15.168831 -11.755815 -68.723820 0.000019 -35.439731 0.000042 11.246017 5.895240 -12.186540 -1.527494 3.687794 6.128159 3.939048 7.948697 0.746782 -0.000000 -0.000002 -0.000003 0.033125 0.675965 -5.610573 0.032966 0.674435 -5.597736 0.000001 0.000002 0.000001 0.069856 0.980273 -8.151093 0.078697 1.040181 -8.653163 -0.000002 -0.000001 -0.000001 0.141440 1.391198 -11.609550 0.158269 1.470737 -12.283656 0.000001 0.000001 0.000000 1.260517 5.698233 -14.444257 0.229464 -2.281934 -15.368556 0.000001 0.000002 -0.000002 0.000000 0.000002 -0.000000 0.000000 0.000002 -0.000000 0.000000 0.000002 -0.000000 -0.000000 0.000000 0.000001 -0.000001 -0.000001 -0.000001 -0.000000 0.000000 0.000001 -0.000000 -0.000001 0.000000 4.469013 12.563349 -6.980665 -2.107502 -4.025331 71.586748 0.000002 37.565299 0.000003 5.445483 -0.606387 17.768295 -1.849251 -3.581800 -6.586144 4.637196 -8.634121 -0.225389 0.000001 -0.000002 -0.000001 0.097305 -1.161575 9.577316 0.097310 -1.161578 9.577304 0.000005 0.000001 -0.000001 0.734451 -4.504870 10.622733 0.142217 -1.401922 11.584697 0.000000 0.000001 -0.000000 1.799555 -8.681477 12.425412 0.204358 -1.676591 13.897332 0.000002 0.000001 -0.000000 3.081995 -12.378826 14.479205 0.252506 -1.860350 15.457611 -0.000003 0.000002 -0.000001 0.000001 0.000001 0.000001 0.000001 -0.000004 -0.000001 0.000001 0.000001 0.000001 0.000001 0.000000 0.000000 0.000002 0.000000 0.000001 0.000001 0.000000 0.000000 0.000002 -0.000000 0.000001 -0.000000 0.000000 0.000000 -0.000000 0.000000 0.000000 -0.000000 0.000000 0.000000 -0.000000 0.000000 0.000000 -0.000000 0.000000 0.000000 -0.000000 0.000000 0.000000 -0.000000 0.000000 0.000000 0.000000 -0.000000 0.000000 -0.000000 0.000000 0.000000 
